<svg width="116" height="317" viewBox="0 0 116 317" fill="none" xmlns="http://www.w3.org/2000/svg">
<mask id="mask0_2891_748" style="mask-type:luminance" maskUnits="userSpaceOnUse" x="0" y="0" width="116" height="317">
<path d="M115.705 6.10352e-05L115.705 316.177H0.000579834L0.000579834 6.10352e-05H115.705Z" fill="white"/>
</mask>
<g mask="url(#mask0_2891_748)">
<g opacity="0.56">
<g opacity="0.22">
<path opacity="0.3" d="M-13.5116 173.373L19.4574 212.813L26.6564 204.201L0.874123 173.373L88.7402 68.2473L4.16891 -32.9229L-3.019 -24.3113L74.3545 68.2473L-13.5116 173.373Z" fill="#CA7009"/>
<path opacity="0.3" d="M-80.1871 219.736L-73.0011 228.348L61.2656 67.7293L5.82151 1.40027L-28.6609 42.635L-45.7815 22.1695L-26.0665 -1.41499L-59.2391 -41.0979L-66.4375 -32.482L-40.4646 -1.4113L-60.1672 22.1732L-28.6609 59.8651L5.82151 18.6149L46.8669 67.7293L-80.1871 219.736Z" fill="#CA7009"/>
<path opacity="0.3" d="M13.303 172.522L56.4472 224.134L63.6462 215.522L27.7011 172.519L91.502 96.184L84.3153 87.5873L13.303 172.522Z" fill="#CA7009"/>
<path opacity="0.3" d="M-82.7305 253.835L-75.5438 262.447L-21.6008 197.917L19.7756 247.416L34.1614 230.207L59.9053 261.02L-15.0124 350.639L-7.81586 359.235L74.291 261.017L34.1614 212.996L19.7756 230.205L-21.6008 180.706L-82.7305 253.835Z" fill="#CA7009"/>
<path opacity="0.3" d="M19.7618 341.63L26.9484 350.227L101.535 261.016L70.7033 224.118L63.5043 232.728L87.1494 261.016L19.7618 341.63Z" fill="#CA7009"/>
<path opacity="0.3" d="M-80.2772 273.479L-35.8101 326.674L-3.36275 287.858L-37.9726 244.934L-21.2468 224.925L27.3422 284.586L48.8633 258.841L36.4266 243.96L29.2374 252.573L34.4776 258.841L27.4437 267.271L-21.1571 207.609L-52.2309 244.781L-17.634 287.706L-35.8101 309.465L-73.0781 264.882L-80.2772 273.479Z" fill="#CA7009"/>
<path opacity="0.3" d="M-42.3703 349.954L-35.1842 358.55L22.9687 288.998L-21.1932 236.154L-28.3923 244.764L8.58303 288.998L-42.3703 349.954Z" fill="#CA7009"/>
<path opacity="0.3" d="M-87.792 -25.2848L-67.9373 -1.53571L-86.3293 20.4667L-5.67588 116.953L35.0898 68.1865L4.70287 31.8355L-24.0067 66.1756L-16.8182 74.7897L4.70287 49.0445L20.7041 68.1865L-5.67588 99.7422L-71.943 20.4673L-53.5509 -1.53508L-80.606 -33.8958L-87.792 -25.2848Z" fill="#CA7009"/>
<path opacity="0.3" d="M84.541 50.1387L91.736 41.5314L28.2205 -34.4506L21.0256 -25.8434L84.541 50.1387Z" fill="#CA7009"/>
<path opacity="0.3" d="M90.6367 55.5878L101.092 68.095L90.9924 80.1766L98.1921 88.7888L115.49 68.095L97.8357 46.991L90.6367 55.5878Z" fill="#CA7009"/>
<path opacity="0.3" d="M51.9082 351.155L97.8119 296.238L90.617 287.631L44.7133 342.547L51.9082 351.155Z" fill="#CA7009"/>
<path opacity="0.3" d="M97.6562 32.7261L104.851 24.1188L55.177 -35.3041L47.982 -26.6969L97.6562 32.7261Z" fill="#CA7009"/>
<path opacity="0.3" d="M89.7227 231.718L96.9176 223.111L46.8934 163.268L39.698 171.875L89.7227 231.718Z" fill="#CA7009"/>
<path opacity="0.3" d="M55.5929 157.579L95.123 204.87L102.322 196.273L69.9767 157.579L105.896 114.609L98.6974 106.013L55.5929 157.579Z" fill="#CA7009"/>
<path opacity="0.3" d="M108.348 255.042L115.543 246.435L104.859 233.652L97.6644 242.259L108.348 255.042Z" fill="#CA7009"/>
<path opacity="0.3" d="M91.6641 166.528L104.84 150.766L97.6453 142.159L84.4691 157.921L91.6641 166.528Z" fill="#CA7009"/>
<path opacity="0.3" d="M80.1074 350.275L104.89 320.639L97.6944 312.032L72.9135 341.666L80.1074 350.275Z" fill="#CA7009"/>
<path opacity="0.3" d="M104.842 287.667L114.241 276.424L107.043 267.818L97.6469 279.06L104.842 287.667Z" fill="#CA7009"/>
<path opacity="0.3" d="M-4.78516 89.5139L12.2316 69.1572L5.03663 60.5499L-11.9801 80.9067L-4.78516 89.5139Z" fill="#CA7009"/>
</g>
</g>
</g>
</svg>
