<svg width="26" height="26" viewBox="0 0 26 26" fill="none" xmlns="http://www.w3.org/2000/svg">
<path d="M12.6667 24.3333C14.9741 24.3333 17.2297 23.6491 19.1483 22.3671C21.0669 21.0852 22.5622 19.2631 23.4453 17.1313C24.3283 14.9995 24.5593 12.6537 24.1092 10.3906C23.659 8.12751 22.5479 6.04871 20.9162 4.41709C19.2846 2.78548 17.2058 1.67434 14.9427 1.22418C12.6796 0.774016 10.3338 1.00505 8.20203 1.88808C6.07022 2.7711 4.24814 4.26645 2.96619 6.18502C1.68424 8.10359 1 10.3592 1 12.6667C1.00893 15.7581 2.24096 18.7204 4.42695 20.9064C6.61294 23.0924 9.57522 24.3244 12.6667 24.3333Z" stroke="#1D75B1" stroke-width="2" stroke-linecap="round" stroke-linejoin="round"/>
<path d="M12.667 8V13.8333" stroke="#1D75B1" stroke-width="2" stroke-linecap="round" stroke-linejoin="round"/>
<path d="M12.6611 17.3333H12.6716" stroke="#1D75B1" stroke-width="2" stroke-linecap="round" stroke-linejoin="round"/>
</svg>
