<svg width="150" height="156" viewBox="0 0 150 156" fill="none" xmlns="http://www.w3.org/2000/svg">
<path d="M75.9492 155.462C100.25 155.462 119.949 153.447 119.949 150.962C119.949 148.477 100.25 146.462 75.9492 146.462C51.6487 146.462 31.9492 148.477 31.9492 150.962C31.9492 153.447 51.6487 155.462 75.9492 155.462Z" fill="#E6E6E6"/>
<path d="M94.0444 64.1269C94.0444 67.9651 92.9063 71.717 90.7739 74.9083C88.6416 78.0996 85.6108 80.587 82.0648 82.0558C78.5188 83.5245 74.6169 83.9088 70.8525 83.1601C67.0881 82.4113 63.6303 80.563 60.9163 77.8491C58.2023 75.1351 56.3541 71.6773 55.6053 67.9129C54.8565 64.1485 55.2408 60.2466 56.7096 56.7006C58.1784 53.1546 60.6657 50.1238 63.857 47.9914C67.0483 45.8591 70.8003 44.7209 74.6384 44.7209C79.7852 44.7209 84.7212 46.7655 88.3605 50.4048C91.9999 54.0442 94.0444 58.9802 94.0444 64.1269Z" stroke="#D8D8D8" stroke-width="5"/>
<path d="M22.5158 52.8071C34.7688 -1.05793 114.571 -0.992931 126.762 52.8691C133.915 84.4691 114.262 111.212 97.0308 127.757C91.0104 133.564 82.9722 136.808 74.6078 136.808C66.2435 136.808 58.2052 133.564 52.1848 127.757C35.0178 111.213 15.3628 84.4051 22.5158 52.8071Z" stroke="#D8D8D8" stroke-width="5"/>
</svg>
