<svg width="42" height="42" viewBox="0 0 42 42" fill="none" xmlns="http://www.w3.org/2000/svg">
<path d="M36.8734 9.1525C34.0559 8.8725 31.2384 8.6625 28.4034 8.505V8.4875L28.0184 6.2125C27.7559 4.6025 27.3709 2.1875 23.2759 2.1875H18.6909C14.6064 2.1875 14.2284 4.4975 13.9484 6.195L13.5809 8.435C11.9534 8.54 10.3259 8.645 8.6984 8.8025L5.1284 9.1525C4.78263 9.18499 4.46392 9.35351 4.24239 9.62098C4.02086 9.88845 3.91466 10.233 3.94715 10.5788C3.97964 10.9245 4.14816 11.2432 4.41563 11.4648C4.68311 11.6863 5.02763 11.7925 5.3734 11.76L8.9434 11.41C18.1611 10.6143 27.4351 10.7374 36.6284 11.7775H36.7684C37.0955 11.7762 37.4105 11.6539 37.6528 11.4342C37.8952 11.2145 38.0476 10.9129 38.0809 10.5875C38.1073 10.2379 37.9956 9.89192 37.7699 9.62368C37.5442 9.35544 37.2223 9.18629 36.8734 9.1525Z" fill="#E60B4D"/>
<path d="M33.6489 14.245C33.443 14.0299 33.1959 13.8586 32.9222 13.7414C32.6486 13.6241 32.3541 13.5632 32.0564 13.5625H9.93989C9.64193 13.5616 9.34694 13.6217 9.07307 13.7391C8.7992 13.8565 8.55224 14.0286 8.34739 14.245C8.14298 14.4654 7.98472 14.7245 7.88193 15.007C7.77915 15.2895 7.73391 15.5898 7.74889 15.89L8.83389 33.845C9.02639 36.505 9.27139 39.83 15.3789 39.83H26.6139C32.7214 39.83 32.9664 36.5225 33.1589 33.845L34.2439 15.9075C34.2605 15.6047 34.2164 15.3017 34.1143 15.0162C34.0121 14.7307 33.8539 14.4685 33.6489 14.245ZM23.9049 31.0625H18.0739C17.7258 31.0625 17.392 30.9242 17.1458 30.6781C16.8997 30.4319 16.7614 30.0981 16.7614 29.75C16.7614 29.4019 16.8997 29.0681 17.1458 28.8219C17.392 28.5758 17.7258 28.4375 18.0739 28.4375H23.9014C24.2495 28.4375 24.5833 28.5758 24.8295 28.8219C25.0756 29.0681 25.2139 29.4019 25.2139 29.75C25.2139 30.0981 25.0756 30.4319 24.8295 30.6781C24.5833 30.9242 24.2495 31.0625 23.9014 31.0625H23.9049ZM25.3749 24.0625H16.6249C16.2768 24.0625 15.943 23.9242 15.6968 23.6781C15.4507 23.4319 15.3124 23.0981 15.3124 22.75C15.3124 22.4019 15.4507 22.0681 15.6968 21.8219C15.943 21.5758 16.2768 21.4375 16.6249 21.4375H25.3749C25.723 21.4375 26.0568 21.5758 26.303 21.8219C26.5491 22.0681 26.6874 22.4019 26.6874 22.75C26.6874 23.0981 26.5491 23.4319 26.303 23.6781C26.0568 23.9242 25.723 24.0625 25.3749 24.0625Z" fill="#E60B4D"/>
</svg>
