<svg width="25" height="25" viewBox="0 0 25 25" fill="none" xmlns="http://www.w3.org/2000/svg">
<path d="M11.1916 2.03455H9.15708C4.06871 2.03455 2.03418 4.06907 2.03418 9.15745V15.2624C2.03418 20.3522 4.06871 22.3853 9.15708 22.3853H15.262C20.3518 22.3853 22.3849 20.3508 22.3849 15.2624V13.2265" stroke="#1D75B1" stroke-width="2" stroke-linecap="round" stroke-linejoin="round"/>
<path d="M16.3203 3.07316L8.30321 11.0916C7.95968 11.4685 7.72732 11.9332 7.63191 12.4342L7.19447 15.4977C7.14175 15.7356 7.14989 15.9831 7.21812 16.2171C7.28634 16.4511 7.41247 16.6641 7.58482 16.8365C7.75717 17.0088 7.9702 17.1349 8.2042 17.2032C8.4382 17.2714 8.68563 17.2795 8.92361 17.2268L11.9871 16.7894C12.4866 16.6896 12.9502 16.4578 13.3297 16.1181L21.3412 8.09964C22.7306 6.71577 23.3826 5.10906 21.3412 3.07316C19.2998 1.03726 17.7041 1.6893 16.3203 3.07316Z" stroke="#1D75B1" stroke-width="2" stroke-linecap="round" stroke-linejoin="round"/>
<path d="M15.1709 4.22314C15.5083 5.42124 16.1476 6.51263 17.0278 7.39275C17.9079 8.27288 18.9993 8.91225 20.1974 9.24962" stroke="#1D75B1" stroke-width="2" stroke-linecap="round" stroke-linejoin="round"/>
</svg>
