<svg width="19" height="19" viewBox="0 0 19 19" fill="none" xmlns="http://www.w3.org/2000/svg">
<path d="M10.6235 2.71207L4.4375 9.26007C4.17944 9.56912 4.00703 9.94049 3.9375 10.3371L3.6535 12.7791C3.61701 12.9689 3.62893 13.165 3.68818 13.349C3.74742 13.533 3.85208 13.6992 3.99248 13.8321C4.13289 13.9651 4.30452 14.0605 4.49153 14.1096C4.67854 14.1587 4.87491 14.1599 5.0625 14.1131L7.4885 13.6991C7.88447 13.6108 8.24763 13.4129 8.5365 13.1281L14.7225 6.58007C15.7925 5.45007 16.2745 4.16107 14.6095 2.58707C12.9515 1.02807 11.6935 1.58207 10.6235 2.71207Z" stroke="#1D75B1" stroke-width="1.5" stroke-linecap="round" stroke-linejoin="round"/>
<path d="M9.5918 3.80493C9.74985 4.81508 10.2388 5.74416 10.9819 6.44639C11.7251 7.14863 12.6803 7.58426 13.6978 7.68493" stroke="#1D75B1" stroke-width="1.5" stroke-linecap="round" stroke-linejoin="round"/>
<path d="M2.89258 16.5769H16.4556" stroke="#1D75B1" stroke-width="1.5" stroke-linecap="round" stroke-linejoin="round"/>
</svg>
