<svg width="138" height="150" viewBox="0 0 138 150" fill="none" xmlns="http://www.w3.org/2000/svg">
<path d="M69.2969 149.737C93.5974 149.737 113.297 147.723 113.297 145.237C113.297 142.752 93.5974 140.737 69.2969 140.737C44.9963 140.737 25.2969 142.752 25.2969 145.237C25.2969 147.723 44.9963 149.737 69.2969 149.737Z" fill="#E6E6E6"/>
<path d="M53.5332 84.5247L62.1585 93.15L85.1586 70.1499" stroke="#D8D8D8" stroke-width="5" stroke-linecap="round" stroke-linejoin="round"/>
<path d="M57.501 34.5001H80.5012C92.0012 34.5001 92.0012 28.7506 92.0012 23.0001C92.0012 11.5 86.2507 11.5 80.5012 11.5H57.501C51.7505 11.5 46.001 11.5 46.001 23.0001C46.001 34.5001 51.7505 34.5001 57.501 34.5001Z" stroke="#D8D8D8" stroke-width="5" stroke-linecap="round" stroke-linejoin="round"/>
<path d="M91.999 23.1152C111.147 24.1534 120.749 31.2224 120.749 57.5003V92.0004C120.749 115.001 114.999 126.501 86.2485 126.501H51.7512C23.0005 126.5 17.251 115 17.251 92.0004V57.5003C17.251 31.2799 26.8531 24.1534 46.0007 23.1152" stroke="#D8D8D8" stroke-width="5" stroke-linecap="round" stroke-linejoin="round"/>
</svg>
