<svg width="28" height="28" viewBox="0 0 28 28" fill="none" xmlns="http://www.w3.org/2000/svg">
<path d="M14.444 23.8173C13.9807 23.9547 13.4876 23.9547 13.0243 23.8173C9.705 22.6838 2.28909 17.9572 2.28909 9.94563C2.28656 9.10762 2.44918 8.27732 2.76766 7.50218C3.08614 6.72705 3.55424 6.02226 4.1452 5.4281C4.73617 4.83394 5.43842 4.36205 6.21183 4.0394C6.98524 3.71675 7.81465 3.54965 8.65266 3.54767C9.64128 3.54731 10.6162 3.77915 11.4988 4.22453C12.3814 4.6699 13.1471 5.31635 13.7342 6.1118C14.5326 5.03664 15.6505 4.2415 16.9281 3.8401C18.2058 3.4387 19.5776 3.4516 20.8474 3.87697C22.1173 4.30233 23.2201 5.11837 23.9981 6.20836C24.7761 7.29836 25.1896 8.60648 25.1792 9.94563C25.1792 17.9572 17.7633 22.6838 14.444 23.8173Z" stroke="#1D75B1" stroke-width="2" stroke-linecap="round" stroke-linejoin="round"/>
</svg>
