<svg width="30" height="30" viewBox="0 0 30 30" fill="none" xmlns="http://www.w3.org/2000/svg">
<g clip-path="url(#clip0_2891_342)">
<path d="M15.7756 26.0126C15.2697 26.1627 14.7311 26.1627 14.2252 26.0126C10.6 24.775 2.50003 19.6126 2.50003 10.8624C2.49745 9.94721 2.67519 9.04052 3.02309 8.19407C3.37098 7.34763 3.88223 6.578 4.52762 5.92916C5.17301 5.28033 5.93991 4.76498 6.78451 4.41256C7.6291 4.06014 8.53486 3.87756 9.45003 3.87523C10.5298 3.87475 11.5945 4.12789 12.5585 4.61425C13.5225 5.1006 14.3588 5.80658 15 6.67531C15.8717 5.50047 17.0928 4.63149 18.4884 4.19271C19.884 3.75394 21.3826 3.76787 22.7699 4.23251C24.1571 4.69715 25.3618 5.58868 26.2115 6.77952C27.0613 7.97036 27.5126 9.39947 27.5008 10.8624C27.5008 19.6126 19.3999 24.775 15.7756 26.0126Z" stroke="#E60B4D" stroke-width="1.5" stroke-linecap="round" stroke-linejoin="round"/>
<path d="M14.9992 6.26561L18.0637 4.7031L20.1474 4.0842H21.8738L23.859 4.7031C24.3792 5.05047 24.8502 5.46642 25.2591 5.93975C25.4542 6.33083 26.5608 7.73082 26.5608 7.73082L27.1478 9.97762V11.8329L27.5142 14.2504L25.9847 16.5624L23.859 20.1764L20.9367 22.9765L18.0637 25.0606L15.5005 26.2973L14.2317 25.9062L12.3084 25.4181L7.67608 21.7957L6.5057 20.1764C6.5057 20.1764 4.48732 17.7262 4.42198 17.4985C4.35665 17.2708 3.21696 14.4054 3.21696 14.4054L2.5625 11.735V9.68162C2.81631 8.7921 3.13227 7.92159 3.50865 7.0766C3.67106 6.84886 5.13661 5.18846 5.13661 5.18846C5.96416 4.83552 6.81132 4.53099 7.67425 4.27652C8.5129 4.04034 9.37741 3.90903 10.2484 3.8855C10.702 3.97883 12.2014 3.75571 12.7222 4.27652C13.243 4.79734 14.9992 6.26561 14.9992 6.26561Z" fill="#E60B4D"/>
</g>
<defs>
<clipPath id="clip0_2891_342">
<rect width="30" height="30" fill="white"/>
</clipPath>
</defs>
</svg>
