<svg width="166" height="166" viewBox="0 0 166 166" fill="none" xmlns="http://www.w3.org/2000/svg">
<path d="M87.0849 143.602C84.2927 144.43 81.3202 144.43 78.5279 143.602C58.5169 136.77 13.8009 108.271 13.8009 59.9659C13.7862 54.9136 14.7671 49.9079 16.6874 45.2347C18.6078 40.5615 21.43 36.3125 24.993 32.7303C28.5559 29.1482 32.7897 26.3031 37.4525 24.3576C42.1152 22.4121 47.1156 21.4044 52.1679 21.3919C58.1286 21.3892 64.0066 22.7865 69.3284 25.4712C74.6502 28.156 79.267 32.0532 82.8069 36.8489C87.6206 30.3658 94.3613 25.5711 102.065 23.1507C109.768 20.7302 118.04 20.8081 125.696 23.373C133.353 25.938 140.002 30.8586 144.693 37.4312C149.384 44.0037 151.876 51.8914 151.813 59.9659C151.813 108.271 107.101 136.77 87.0849 143.602Z" stroke="#D8D8D8" stroke-width="5" stroke-linecap="round" stroke-linejoin="round"/>
<path d="M83.8076 161.307C108.108 161.307 127.808 159.292 127.808 156.807C127.808 154.322 108.108 152.307 83.8076 152.307C59.5071 152.307 39.8076 154.322 39.8076 156.807C39.8076 159.292 59.5071 161.307 83.8076 161.307Z" fill="#E6E6E6"/>
</svg>
