<svg width="24" height="24" viewBox="0 0 24 24" fill="none" xmlns="http://www.w3.org/2000/svg">
<g clip-path="url(#clip0_2513_696)">
<path d="M13.4098 20.79L11.9998 21.7C11.6904 21.8889 11.3367 21.9927 10.9744 22.0009C10.612 22.0092 10.2539 21.9216 9.93631 21.7471C9.61868 21.5725 9.35278 21.3172 9.1655 21.0069C8.97822 20.6966 8.8762 20.3424 8.86976 19.98V14.63C8.81989 13.8578 8.53752 13.1187 8.05976 12.51L4.21976 8.47001C3.69429 7.9206 3.37309 7.20762 3.30976 6.45001V4.13001C3.30056 3.85751 3.34578 3.58591 3.44279 3.33109C3.5398 3.07627 3.68663 2.84336 3.87472 2.64596C4.06281 2.44856 4.28836 2.29065 4.5382 2.18146C4.78803 2.07226 5.05713 2.01398 5.32976 2.01001H18.6698C19.2049 2.01185 19.7177 2.22527 20.0961 2.60369C20.4745 2.98212 20.6879 3.49484 20.6898 4.03001V6.25001C20.6302 7.11655 20.2734 7.93599 19.6798 8.57001" stroke="#292D32" stroke-width="1.5" stroke-linecap="round" stroke-linejoin="round"/>
<path d="M17.08 11.89L13.541 15.43C13.389 15.5957 13.2853 15.7997 13.241 16.02L13.051 17.37C13.0272 17.4747 13.0303 17.5837 13.06 17.6869C13.0898 17.79 13.1452 17.8839 13.2211 17.9599C13.2971 18.0358 13.391 18.0912 13.4941 18.121C13.5973 18.1507 13.7063 18.1538 13.811 18.13L15.161 17.94C15.3821 17.8979 15.5867 17.7939 15.751 17.64L19.291 14.1C19.4675 13.9737 19.6113 13.8071 19.7105 13.6141C19.8098 13.421 19.8615 13.2071 19.8615 12.99C19.8615 12.773 19.8098 12.5591 19.7105 12.366C19.6113 12.173 19.4675 12.0064 19.291 11.88C19.1643 11.7049 18.9977 11.5625 18.805 11.4646C18.6123 11.3667 18.399 11.3162 18.1829 11.3172C17.9668 11.3181 17.754 11.3706 17.5622 11.4702C17.3704 11.5699 17.2051 11.7138 17.08 11.89Z" stroke="#292D32" stroke-width="1.5" stroke-linecap="round" stroke-linejoin="round"/>
<path d="M16.5801 12.3901C16.7268 12.9204 17.0085 13.4036 17.3975 13.7927C17.7866 14.1817 18.2698 14.4634 18.8001 14.6101" stroke="#292D32" stroke-width="1.5" stroke-linecap="round" stroke-linejoin="round"/>
</g>
<defs>
<clipPath id="clip0_2513_696">
<rect width="24" height="24" fill="white"/>
</clipPath>
</defs>
</svg>
