<svg width="44" height="44" viewBox="0 0 44 44" fill="none" xmlns="http://www.w3.org/2000/svg">
<path d="M22 44C34.1503 44 44 34.1503 44 22C44 9.84974 34.1503 0 22 0C9.84974 0 0 9.84974 0 22C0 34.1503 9.84974 44 22 44Z" fill="#1B1616"/>
<path d="M23.515 19.9939L28.222 14.5269H27.108L23.024 19.2739L19.762 14.5269H16L20.932 21.7049L16 27.4379H17.115L21.427 22.4269L24.872 27.4399H28.634L23.515 19.9939ZM21.992 21.7689L21.492 21.0539L17.515 15.3659H19.227L22.436 19.9559L22.936 20.6709L27.107 26.6379H25.396L21.996 21.7689H21.992Z" fill="white"/>
</svg>
