<svg width="29" height="28" viewBox="0 0 29 28" fill="none" xmlns="http://www.w3.org/2000/svg">
<path d="M15.7041 1.3025L24.1718 5.86804C24.3977 6.00028 24.585 6.18931 24.7151 6.41635C24.8453 6.6434 24.9138 6.90055 24.9138 7.16226C24.9138 7.42398 24.8453 7.68113 24.7151 7.90818C24.585 8.13522 24.3977 8.32425 24.1718 8.45649L15.7041 13.022C15.3365 13.2206 14.9252 13.3245 14.5074 13.3245C14.0896 13.3245 13.6784 13.2206 13.3108 13.022L4.84305 8.45649C4.6172 8.32425 4.42989 8.13522 4.29972 7.90818C4.16956 7.68113 4.10107 7.42398 4.10107 7.16226C4.10107 6.90055 4.16956 6.6434 4.29972 6.41635C4.42989 6.18931 4.6172 6.00028 4.84305 5.86804L13.3108 1.3025C13.6784 1.10396 14.0896 1 14.5074 1C14.9252 1 15.3365 1.10396 15.7041 1.3025Z" stroke="#292D32" stroke-width="1.5" stroke-linecap="round" stroke-linejoin="round"/>
<path d="M3.59417 11.5391L11.4635 15.4803C11.943 15.7222 12.3463 16.092 12.6286 16.5489C12.911 17.0057 13.0615 17.5317 13.0634 18.0688V25.5089C13.0636 25.7555 13.0005 25.998 12.8802 26.2132C12.76 26.4285 12.5866 26.6093 12.3765 26.7385C12.1665 26.8677 11.9268 26.9408 11.6805 26.951C11.4341 26.9612 11.1893 26.908 10.9693 26.7966L3.09989 22.8554C2.6204 22.6136 2.21716 22.2437 1.9348 21.7869C1.65244 21.3301 1.50196 20.804 1.5 20.267V12.8269C1.49986 12.5803 1.56293 12.3378 1.68319 12.1225C1.80345 11.9073 1.97688 11.7264 2.18692 11.5973C2.39696 11.4681 2.6366 11.395 2.88296 11.3848C3.12933 11.3746 3.37419 11.4277 3.59417 11.5391Z" stroke="#292D32" stroke-width="1.5" stroke-linecap="round" stroke-linejoin="round"/>
<path d="M25.4202 11.5391L17.5508 15.4803C17.0713 15.7222 16.6681 16.092 16.3857 16.5489C16.1034 17.0057 15.9529 17.5317 15.9509 18.0688V25.5089C15.9508 25.7555 16.0139 25.998 16.1341 26.2132C16.2544 26.4285 16.4278 26.6093 16.6378 26.7385C16.8479 26.8677 17.0875 26.9408 17.3339 26.951C17.5803 26.9612 17.8251 26.908 18.0451 26.7966L25.9145 22.8554C26.394 22.6136 26.7972 22.2437 27.0796 21.7869C27.3619 21.3301 27.5124 20.804 27.5144 20.267V12.8269C27.5145 12.5803 27.4514 12.3378 27.3312 12.1225C27.2109 11.9073 27.0375 11.7264 26.8275 11.5973C26.6174 11.4681 26.3778 11.395 26.1314 11.3848C25.885 11.3746 25.6402 11.4277 25.4202 11.5391Z" stroke="#292D32" stroke-width="1.5" stroke-linecap="round" stroke-linejoin="round"/>
</svg>
