<svg width="28" height="8" viewBox="0 0 28 8" fill="none" xmlns="http://www.w3.org/2000/svg">
<path d="M3.88888 1C3.31751 1 2.75898 1.16943 2.2839 1.48686C1.80883 1.8043 1.43856 2.25548 1.2199 2.78335C1.00125 3.31122 0.944042 3.89208 1.05551 4.45247C1.16698 5.01286 1.44212 5.52761 1.84613 5.93162C2.25015 6.33564 2.7649 6.61078 3.32529 6.72225C3.88567 6.83371 4.46653 6.7765 4.9944 6.55785C5.52228 6.3392 5.97346 5.96892 6.29089 5.49385C6.60833 5.01878 6.77776 4.46024 6.77776 3.88888C6.77547 3.1234 6.47037 2.38993 5.9291 1.84866C5.38782 1.30738 4.65435 1.00229 3.88888 1Z" stroke="#1D75B1" stroke-width="2"/>
<path d="M24.1108 1.00012C23.5394 1.00012 22.9809 1.16955 22.5058 1.48699C22.0308 1.80442 21.6605 2.2556 21.4418 2.78347C21.2232 3.31135 21.166 3.8922 21.2774 4.45259C21.3889 5.01298 21.664 5.52773 22.0681 5.93174C22.4721 6.33576 22.9868 6.6109 23.5472 6.72237C24.1076 6.83384 24.6885 6.77663 25.2163 6.55797C25.7442 6.33932 26.1954 5.96905 26.5128 5.49397C26.8302 5.0189 26.9997 4.46037 26.9997 3.889C26.9974 3.12352 26.6923 2.39005 26.151 1.84878C25.6097 1.30751 24.8763 1.00241 24.1108 1.00012Z" stroke="#1D75B1" stroke-width="2"/>
<path d="M14.0005 1.00012C13.4291 1.00012 12.8705 1.16955 12.3955 1.48699C11.9204 1.80442 11.5501 2.2556 11.3315 2.78347C11.1128 3.31135 11.0556 3.8922 11.1671 4.45259C11.2786 5.01298 11.5537 5.52773 11.9577 5.93174C12.3617 6.33576 12.8765 6.6109 13.4369 6.72237C13.9972 6.83384 14.5781 6.77663 15.106 6.55797C15.6338 6.33932 16.085 5.96905 16.4025 5.49397C16.7199 5.0189 16.8893 4.46037 16.8893 3.889C16.887 3.12352 16.5819 2.39005 16.0407 1.84878C15.4994 1.30751 14.7659 1.00241 14.0005 1.00012Z" stroke="#1D75B1" stroke-width="2"/>
</svg>
