<svg width="31" height="31" viewBox="0 0 31 31" fill="none" xmlns="http://www.w3.org/2000/svg">
<path d="M1.5 1H3.965C4.32661 1.00076 4.68416 1.07635 5.01514 1.22201C5.34612 1.36767 5.64338 1.58025 5.88822 1.84638C6.13305 2.1125 6.32016 2.42641 6.43778 2.76836C6.5554 3.11032 6.60099 3.47291 6.57167 3.83333L5.39583 17.9433C5.35079 18.4898 5.41953 19.0396 5.59771 19.5582C5.7759 20.0767 6.05965 20.5527 6.43105 20.9561C6.80246 21.3594 7.25346 21.6814 7.75558 21.9017C8.25769 22.1219 8.80003 22.2357 9.34833 22.2358H24.4358C25.4379 22.2168 26.3978 21.8292 27.1322 21.1471C27.8665 20.465 28.3238 19.5363 28.4167 18.5383L29.1817 7.91333C29.2287 7.36549 29.1603 6.81386 28.9807 6.29414C28.8011 5.77442 28.5145 5.29818 28.1392 4.89624C27.764 4.49431 27.3086 4.17562 26.8024 3.9608C26.2962 3.74598 25.7506 3.63981 25.2008 3.64917H6.91167" stroke="#1D75B1" stroke-width="2" stroke-linecap="round" stroke-linejoin="round"/>
<path d="M23.4582 27.5625C23.4582 27.9127 23.3543 28.2551 23.1597 28.5463C22.9652 28.8375 22.6886 29.0645 22.365 29.1985C22.0414 29.3325 21.6854 29.3676 21.3419 29.2993C20.9984 29.2309 20.6828 29.0623 20.4352 28.8146C20.1875 28.567 20.0189 28.2514 19.9505 27.9079C19.8822 27.5644 19.9173 27.2084 20.0513 26.8848C20.1853 26.5612 20.4123 26.2846 20.7035 26.0901C20.9947 25.8955 21.3371 25.7916 21.6873 25.7916C22.157 25.7916 22.6074 25.9782 22.9395 26.3103C23.2716 26.6424 23.4582 27.0928 23.4582 27.5625Z" stroke="#1D75B1" stroke-width="2" stroke-linecap="round" stroke-linejoin="round"/>
<path d="M12.1247 27.5625C12.1247 27.9127 12.0208 28.2551 11.8262 28.5463C11.6317 28.8375 11.3551 29.0645 11.0315 29.1985C10.7079 29.3325 10.3519 29.3676 10.0084 29.2993C9.66486 29.2309 9.34933 29.0623 9.10167 28.8146C8.85402 28.567 8.68536 28.2514 8.61703 27.9079C8.54871 27.5644 8.58378 27.2084 8.71781 26.8848C8.85184 26.5612 9.07881 26.2846 9.37002 26.0901C9.66123 25.8955 10.0036 25.7916 10.3538 25.7916C10.8235 25.7916 11.2739 25.9782 11.606 26.3103C11.9381 26.6424 12.1247 27.0928 12.1247 27.5625Z" stroke="#1D75B1" stroke-width="2" stroke-linecap="round" stroke-linejoin="round"/>
<path d="M11.4165 9.5H28.4165" stroke="#1D75B1" stroke-width="2" stroke-linecap="round" stroke-linejoin="round"/>
</svg>
