<svg width="44" height="44" viewBox="0 0 44 44" fill="none" xmlns="http://www.w3.org/2000/svg">
<path d="M22 44C34.1503 44 44 34.1503 44 22C44 9.84974 34.1503 0 22 0C9.84974 0 0 9.84974 0 22C0 34.1503 9.84974 44 22 44Z" fill="#1B1616"/>
<path d="M30.2144 26.183C29.4998 26.0095 28.8348 25.6733 28.2714 25.2007C27.7081 24.728 27.2614 24.1316 26.9664 23.458C26.9638 23.4515 26.9608 23.4451 26.9574 23.439C26.9049 23.3564 26.8707 23.2635 26.8573 23.1665C26.8438 23.0695 26.8514 22.9708 26.8794 22.877C27.0004 22.594 27.4634 22.447 27.7694 22.35C27.8584 22.322 27.9424 22.295 28.0114 22.268C28.2559 22.1836 28.4803 22.0495 28.6704 21.874C28.7325 21.8163 28.7823 21.7466 28.8167 21.669C28.8511 21.5915 28.8693 21.5078 28.8704 21.423C28.8556 21.2784 28.7967 21.1419 28.7017 21.0319C28.6068 20.9219 28.4803 20.8437 28.3394 20.808C28.2249 20.7624 28.1026 20.7393 27.9794 20.74C27.8641 20.7383 27.7499 20.7615 27.6444 20.808C27.4297 20.9183 27.1958 20.9862 26.9554 21.008C26.877 21.0056 26.7996 20.9887 26.7274 20.958C26.7334 20.858 26.7394 20.748 26.7474 20.639V20.591C26.9077 19.4753 26.8358 18.3386 26.5364 17.252C26.2983 16.7071 25.9543 16.2149 25.5244 15.804C25.1701 15.4697 24.7608 15.199 24.3144 15.004C23.7188 14.7438 23.0764 14.6077 22.4264 14.604H22.3874H22.1034C21.4525 14.6077 20.8091 14.7438 20.2124 15.004C19.7672 15.199 19.3592 15.4697 19.0064 15.804C18.5793 16.2148 18.2374 16.7059 18.0004 17.249C17.7011 18.3349 17.6289 19.4709 17.7884 20.586C17.7954 20.706 17.8044 20.831 17.8114 20.953C17.7256 20.9888 17.6333 21.0062 17.5404 21.004C17.2832 20.991 17.0318 20.9228 16.8034 20.804C16.7154 20.7645 16.6198 20.7447 16.5234 20.746C16.3473 20.7471 16.1747 20.795 16.0234 20.885C15.9364 20.9303 15.8601 20.9937 15.7997 21.071C15.7393 21.1483 15.6963 21.2376 15.6734 21.333C15.6574 21.4419 15.6709 21.5532 15.7124 21.6552C15.7538 21.7572 15.8219 21.8462 15.9094 21.913C16.0925 22.0655 16.301 22.1847 16.5254 22.265C16.5954 22.293 16.6794 22.319 16.7674 22.347C17.0734 22.447 17.5374 22.591 17.6584 22.874C17.686 22.9679 17.6932 23.0666 17.6795 23.1635C17.6659 23.2604 17.6318 23.3533 17.5794 23.436C17.5763 23.4421 17.5736 23.4485 17.5714 23.455C17.3556 23.9213 17.0751 24.3549 16.7384 24.743C16.4493 25.085 16.1125 25.3838 15.7384 25.63C15.3109 25.9083 14.8305 26.0952 14.3274 26.179C14.2336 26.1941 14.1488 26.2433 14.089 26.3171C14.0292 26.3909 13.9987 26.4841 14.0034 26.579C14.0067 26.6369 14.0202 26.6938 14.0434 26.747C14.1648 26.9701 14.3642 27.1406 14.6034 27.226C15.122 27.4365 15.666 27.578 16.2214 27.647C16.2659 27.7623 16.2993 27.8815 16.3214 28.003C16.3484 28.127 16.3764 28.255 16.4214 28.391C16.4452 28.4884 16.5028 28.5742 16.5839 28.6331C16.665 28.6921 16.7644 28.7204 16.8644 28.713C16.9924 28.7066 17.1196 28.6889 17.2444 28.66C17.5293 28.5975 17.8198 28.564 18.1114 28.56C18.3192 28.5606 18.5265 28.5783 18.7314 28.613C19.1577 28.7238 19.5538 28.9289 19.8904 29.213C20.5306 29.757 21.3349 30.0704 22.1744 30.103C22.2024 30.103 22.2304 30.103 22.2584 30.103C22.2914 30.103 22.3334 30.103 22.3774 30.103C23.2167 30.0703 24.0208 29.7573 24.6614 29.214C24.9982 28.9302 25.3942 28.7252 25.8204 28.614C26.0252 28.5793 26.2326 28.5616 26.4404 28.561C26.7317 28.5625 27.0222 28.5934 27.3074 28.653C27.4324 28.6802 27.5596 28.6959 27.6874 28.7H27.7004C27.7969 28.7043 27.892 28.675 27.9694 28.6173C28.0469 28.5595 28.102 28.4767 28.1254 28.383C28.1644 28.25 28.1924 28.126 28.2254 27.998C28.2479 27.8772 28.2814 27.7587 28.3254 27.644C28.8807 27.5745 29.4246 27.433 29.9434 27.223C30.1819 27.1373 30.3807 26.9673 30.5024 26.745C30.5262 26.6909 30.5401 26.633 30.5434 26.574C30.5459 26.4799 30.5137 26.3881 30.4531 26.3161C30.3925 26.244 30.3076 26.1967 30.2144 26.183Z" fill="white"/>
</svg>
