<svg width="44" height="44" viewBox="0 0 44 44" fill="none" xmlns="http://www.w3.org/2000/svg">
<path d="M22 44C34.1503 44 44 34.1503 44 22C44 9.84974 34.1503 0 22 0C9.84974 0 0 9.84974 0 22C0 34.1503 9.84974 44 22 44Z" fill="#1B1616"/>
<path d="M24.979 14.605H18.079C16.998 14.6052 15.9612 15.0345 15.1964 15.7986C14.4316 16.5626 14.0013 17.5989 14 18.68V25.58C14.0013 26.6603 14.4311 27.6961 15.195 28.46C15.9589 29.2239 16.9946 29.6537 18.075 29.655H24.975C26.0554 29.6537 27.0911 29.2239 27.855 28.46C28.6189 27.6961 29.0487 26.6603 29.05 25.58V18.68C29.0487 17.6003 28.6195 16.5652 27.8564 15.8014C27.0934 15.0376 26.0587 14.6074 24.979 14.605ZM21.527 26.25C20.7127 26.25 19.9168 26.0085 19.2397 25.5561C18.5627 25.1038 18.035 24.4608 17.7234 23.7085C17.4118 22.9562 17.3303 22.1284 17.4891 21.3298C17.648 20.5312 18.0401 19.7976 18.6158 19.2218C19.1916 18.646 19.9252 18.2539 20.7238 18.0951C21.5224 17.9362 22.3502 18.0178 23.1025 18.3294C23.8548 18.641 24.4978 19.1687 24.9502 19.8457C25.4025 20.5227 25.644 21.3187 25.644 22.133C25.6429 23.2246 25.2088 24.2711 24.437 25.043C23.6651 25.8148 22.6186 26.2489 21.527 26.25ZM25.742 18.987C25.5015 18.9868 25.2665 18.9153 25.0667 18.7816C24.8669 18.6478 24.7112 18.4578 24.6193 18.2356C24.5274 18.0134 24.5035 17.769 24.5505 17.5331C24.5975 17.2973 24.7134 17.0807 24.8835 16.9108C25.0536 16.7408 25.2703 16.6251 25.5061 16.5783C25.742 16.5314 25.9864 16.5556 26.2086 16.6476C26.4307 16.7397 26.6206 16.8956 26.7541 17.0955C26.8877 17.2955 26.959 17.5305 26.959 17.771C26.9585 18.0935 26.83 18.4026 26.6019 18.6306C26.3738 18.8585 26.0645 18.9867 25.742 18.987Z" fill="white"/>
<path d="M21.526 18.8989C20.8864 18.8989 20.2611 19.0886 19.7293 19.444C19.1975 19.7993 18.7829 20.3044 18.5382 20.8953C18.2934 21.4863 18.2293 22.1365 18.3541 22.7638C18.4789 23.3912 18.7869 23.9674 19.2392 24.4197C19.6915 24.872 20.2677 25.18 20.8951 25.3048C21.5224 25.4296 22.1727 25.3655 22.7636 25.1207C23.3545 24.876 23.8596 24.4615 24.215 23.9296C24.5703 23.3978 24.76 22.7725 24.76 22.1329C24.7589 21.2755 24.4179 20.4536 23.8116 19.8473C23.2053 19.241 22.3834 18.9 21.526 18.8989Z" fill="white"/>
<path d="M25.7422 17.436C25.6761 17.436 25.6116 17.4556 25.5566 17.4923C25.5017 17.529 25.4589 17.5812 25.4336 17.6422C25.4084 17.7033 25.4017 17.7704 25.4146 17.8352C25.4275 17.9 25.4593 17.9595 25.506 18.0062C25.5527 18.0529 25.6123 18.0847 25.677 18.0976C25.7418 18.1105 25.809 18.1039 25.87 18.0786C25.9311 18.0533 25.9832 18.0105 26.0199 17.9556C26.0566 17.9007 26.0762 17.8361 26.0762 17.77C26.0762 17.7262 26.0676 17.6827 26.0508 17.6422C26.034 17.6017 26.0094 17.5649 25.9784 17.5339C25.9474 17.5028 25.9106 17.4782 25.87 17.4615C25.8295 17.4447 25.7861 17.436 25.7422 17.436Z" fill="white"/>
</svg>
