<svg width="44" height="44" viewBox="0 0 44 44" fill="none" xmlns="http://www.w3.org/2000/svg">
<path d="M22 44C34.1503 44 44 34.1503 44 22C44 9.84974 34.1503 0 22 0C9.84974 0 0 9.84974 0 22C0 34.1503 9.84974 44 22 44Z" fill="#1B1616"/>
<path d="M25.1493 23.7168L25.1433 23.7648C23.7433 23.0648 23.5963 22.9738 23.4153 23.2448C23.2903 23.4328 22.9243 23.8588 22.8153 23.9848C22.7063 24.1108 22.5933 24.1188 22.4043 24.0328C21.8429 23.8094 21.3251 23.4892 20.8743 23.0868C20.4589 22.7017 20.1024 22.2576 19.8163 21.7688C19.6293 21.4468 20.0163 21.4008 20.3753 20.7288C20.4 20.6768 20.4115 20.6194 20.4087 20.5618C20.4059 20.5042 20.3889 20.4483 20.3593 20.3988C20.3113 20.2988 19.9313 19.3668 19.7723 18.9988C19.6133 18.6308 19.4623 18.6738 19.3443 18.6738C19.1923 18.6355 19.0332 18.6354 18.8812 18.6736C18.7292 18.7119 18.5891 18.7872 18.4733 18.8928C17.4453 20.0228 17.7043 21.1878 18.5843 22.4268C20.3123 24.6798 21.2303 25.0988 22.9163 25.6748C23.305 25.7927 23.7157 25.819 24.1163 25.7518C24.3814 25.6973 24.6324 25.5885 24.8534 25.4322C25.0743 25.276 25.2606 25.0756 25.4003 24.8438C25.5274 24.5595 25.5674 24.2439 25.5153 23.9368C25.4683 23.8508 25.3433 23.8028 25.1523 23.7168H25.1493Z" fill="white"/>
<path d="M27.066 16.8052C25.9964 15.754 24.6412 15.0407 23.1691 14.7541C21.6971 14.4675 20.1733 14.6204 18.7874 15.1936C17.4016 15.7668 16.215 16.735 15.3755 17.9777C14.536 19.2204 14.0806 20.6826 14.066 22.1822C14.0646 23.5101 14.4141 24.8148 15.079 25.9642L13.999 29.8872L18.033 28.8352C19.1903 29.4611 20.4899 29.7767 21.8054 29.7515C23.1208 29.7263 24.4073 29.361 25.5398 28.6913C26.6722 28.0215 27.6121 27.07 28.2678 25.9294C28.9236 24.7888 29.273 23.4979 29.282 22.1822C29.2846 21.1865 29.0891 20.2001 28.707 19.2806C28.3248 18.3611 27.7636 17.5268 27.056 16.8262L27.066 16.8052ZM28.01 22.1652C28.0018 23.2789 27.7003 24.3708 27.1359 25.331C26.5715 26.2912 25.7642 27.0857 24.7951 27.6347C23.8261 28.1836 22.7295 28.4676 21.6158 28.4581C20.5021 28.4485 19.4105 28.1457 18.451 27.5802L18.222 27.4442L15.834 28.0652L16.474 25.7442L16.321 25.5052C15.4975 24.1882 15.1882 22.614 15.4521 21.0833C15.716 19.5526 16.5348 18.1729 17.7518 17.2077C18.9688 16.2426 20.4988 15.7598 22.0494 15.8516C23.6 15.9434 25.0623 16.6033 26.157 17.7052C26.7464 18.2876 27.2137 18.9816 27.5317 19.7467C27.8497 20.5118 28.012 21.3327 28.009 22.1612L28.01 22.1652Z" fill="white"/>
</svg>
