<svg width="29" height="28" viewBox="0 0 29 28" fill="none" xmlns="http://www.w3.org/2000/svg">
<path d="M14.4888 21.5016V17.6129" stroke="#1D75B1" stroke-width="2" stroke-linecap="round" stroke-linejoin="round"/>
<path d="M11.987 1.82476L3.00413 9.01885C2.47804 9.48619 2.07253 10.0736 1.82203 10.7312C1.57154 11.3888 1.48347 12.0972 1.56532 12.7961L3.28931 23.1141C3.47116 24.0339 3.9602 24.8645 4.6762 25.4698C5.3922 26.0751 6.29265 26.4191 7.22985 26.4454H21.7438C22.6797 26.4147 23.5779 26.0692 24.293 25.4646C25.0082 24.86 25.4984 24.0319 25.6843 23.1141L27.4083 12.7961C27.4833 12.0984 27.392 11.3929 27.1419 10.7373C26.8918 10.0817 26.49 9.49457 25.9695 9.02403L16.9905 1.83772C16.2695 1.2962 15.3926 1.00235 14.4909 1.00001C13.5892 0.997678 12.7109 1.28698 11.987 1.82476Z" stroke="#1D75B1" stroke-width="2" stroke-linecap="round" stroke-linejoin="round"/>
</svg>
