<svg width="29" height="29" viewBox="0 0 29 29" fill="none" xmlns="http://www.w3.org/2000/svg">
<path d="M26.149 21.5926L24.03 22.3077C23.7387 22.4034 23.474 22.5662 23.2572 22.783C23.0404 22.9998 22.8776 23.2644 22.7819 23.5557L22.0669 25.6748C21.9362 26.0724 21.6823 26.4182 21.342 26.6619C21.0017 26.9056 20.5926 27.0346 20.1741 27.0303C19.7555 27.026 19.3492 26.8885 19.014 26.6377C18.6788 26.387 18.4322 26.0361 18.3098 25.6358L15.9047 17.9005C15.7954 17.5564 15.7825 17.1888 15.8675 16.8379C15.9525 16.4869 16.1321 16.166 16.3867 15.9099C16.6414 15.6539 16.9614 15.4727 17.3119 15.3858C17.6624 15.299 18.03 15.3099 18.3748 15.4175L26.123 17.8225C26.5211 17.95 26.8688 18.2001 27.1164 18.5369C27.364 18.8737 27.4988 19.2801 27.5017 19.6982C27.5046 20.1162 27.3754 20.5245 27.1324 20.8647C26.8895 21.2049 26.5453 21.4597 26.149 21.5926Z" stroke="#1D75B1" stroke-width="2" stroke-linecap="round" stroke-linejoin="round"/>
<path d="M27.5008 14.0004C27.5008 11.4292 26.7384 8.91568 25.3099 6.77778C23.8814 4.63987 21.851 2.97357 19.4755 1.9896C17.0999 1.00563 14.486 0.748181 11.9642 1.24981C9.44233 1.75143 7.12588 2.9896 5.30774 4.80774C3.4896 6.62588 2.25143 8.94233 1.74981 11.4642C1.24818 13.986 1.50563 16.5999 2.4896 18.9755C3.47357 21.351 5.13987 23.3814 7.27778 24.8099C9.41568 26.2384 11.9292 27.0008 14.5004 27.0008" stroke="#1D75B1" stroke-width="2" stroke-linecap="round" stroke-linejoin="round"/>
</svg>
