<svg width="44" height="44" viewBox="0 0 44 44" fill="none" xmlns="http://www.w3.org/2000/svg">
<path d="M22 44C34.1503 44 44 34.1503 44 22C44 9.84974 34.1503 0 22 0C9.84974 0 0 9.84974 0 22C0 34.1503 9.84974 44 22 44Z" fill="#1B1616"/>
<path d="M23.379 29.6378V22.3598H25.82L26.186 19.5228H23.379V17.7118C23.379 16.8908 23.606 16.3308 24.785 16.3308H26.285V13.7928C25.5585 13.7166 24.8285 13.6795 24.098 13.6818C23.6009 13.6458 23.102 13.7189 22.6362 13.896C22.1704 14.0732 21.7489 14.35 21.4014 14.7072C21.0538 15.0644 20.7886 15.4932 20.6243 15.9637C20.4599 16.4342 20.4004 16.9349 20.45 17.4308V19.5228H18V22.3598H20.449V29.6378H23.379Z" fill="white"/>
</svg>
