<svg width="40" height="40" viewBox="0 0 40 40" fill="none" xmlns="http://www.w3.org/2000/svg">
<g opacity="0.5">
<path d="M25.4371 17.228C25.4371 18.24 25.137 19.2292 24.5748 20.0707C24.0126 20.9122 23.2135 21.568 22.2785 21.9554C21.3436 22.3427 20.3148 22.4441 19.3222 22.2467C18.3296 22.0494 17.4179 21.5621 16.7022 20.8466C15.9866 20.1311 15.4991 19.2194 15.3016 18.2269C15.104 17.2343 15.2052 16.2055 15.5923 15.2705C15.9795 14.3354 16.6352 13.5362 17.4765 12.9738C18.3179 12.4114 19.3071 12.1112 20.3191 12.111C20.9912 12.1108 21.6567 12.2431 22.2776 12.5002C22.8986 12.7573 23.4628 13.1342 23.938 13.6093C24.4133 14.0845 24.7903 14.6487 25.0475 15.2695C25.3047 15.8904 25.4371 16.5559 25.4371 17.228Z" stroke="#2D2525" stroke-width="1.5"/>
<path d="M6.57559 14.243C9.80659 0.0429907 30.8506 0.0549898 34.0646 14.259C35.9506 22.591 30.7646 29.644 26.2246 34.007C24.6369 35.5381 22.5173 36.3937 20.3116 36.3937C18.1059 36.3937 15.9862 35.5381 14.3986 34.007C9.87059 29.644 4.68759 22.575 6.57559 14.243Z" stroke="#2D2525" stroke-width="1.5"/>
</g>
</svg>
