<svg width="28" height="28" viewBox="0 0 28 28" fill="none" xmlns="http://www.w3.org/2000/svg">
<path d="M17.6401 12.0283C17.6401 12.7482 17.4266 13.4519 17.0266 14.0505C16.6267 14.6491 16.0582 15.1156 15.3931 15.3911C14.728 15.6666 13.9962 15.7387 13.2901 15.5982C12.584 15.4578 11.9355 15.1111 11.4264 14.6021C10.9174 14.093 10.5707 13.4445 10.4303 12.7384C10.2898 12.0323 10.3619 11.3005 10.6374 10.6354C10.9129 9.97028 11.3794 9.40181 11.978 9.00186C12.5766 8.6019 13.2803 8.38843 14.0002 8.38843C14.9656 8.38843 15.8914 8.77191 16.574 9.45452C17.2566 10.1371 17.6401 11.0629 17.6401 12.0283Z" stroke="#1D75B1" stroke-width="2"/>
<path d="M4.22356 9.89887C6.5222 -0.203604 21.4888 -0.192599 23.7765 9.90987C25.1177 15.836 21.4379 20.8528 18.1997 23.9562C17.0712 25.0467 15.5632 25.6563 13.9938 25.6563C12.4245 25.6563 10.9165 25.0467 9.7879 23.9562C6.56759 20.8583 2.88234 15.8305 4.22356 9.89887Z" stroke="#1D75B1" stroke-width="2"/>
</svg>
