<svg width="28" height="28" viewBox="0 0 28 28" fill="none" xmlns="http://www.w3.org/2000/svg">
<path d="M20.3457 17.0561L23.3322 14.0697L20.3457 11.0833" stroke="#E60B4D" stroke-width="2" stroke-linecap="round" stroke-linejoin="round"/>
<path d="M11.3867 14.0697H23.2513" stroke="#E60B4D" stroke-width="2" stroke-linecap="round" stroke-linejoin="round"/>
<path d="M13.7202 23.3318C12.4792 23.3898 11.2398 23.1881 10.0812 22.7397C8.92267 22.2912 7.87047 21.6059 6.99194 20.7275C6.11342 19.8491 5.42793 18.797 4.97932 17.6385C4.53071 16.48 4.32886 15.2406 4.3867 13.9996C4.32866 12.7585 4.53036 11.519 4.97888 10.3603C5.4274 9.20165 6.11287 8.14938 6.99141 7.27083C7.86996 6.39229 8.92223 5.70682 10.0809 5.2583C11.2396 4.80978 12.4791 4.60808 13.7202 4.66611" stroke="#E60B4D" stroke-width="2" stroke-linecap="round" stroke-linejoin="round"/>
</svg>
