<svg width="28" height="28" viewBox="0 0 28 28" fill="none" xmlns="http://www.w3.org/2000/svg">
<path d="M10.8594 17.1483L12.6091 18.8981L17.2752 14.2321" stroke="#1D75B1" stroke-width="2" stroke-linecap="round" stroke-linejoin="round"/>
<path d="M11.6725 6.99909H16.3331C18.6716 6.99909 18.6716 5.83258 18.6716 4.66056C18.6716 2.32202 17.5051 2.32202 16.3331 2.32202H11.6725C10.5005 2.33303 9.33398 2.33303 9.33398 4.67156C9.33398 7.0101 10.5005 6.99909 11.6725 6.99909Z" stroke="#1D75B1" stroke-width="2" stroke-linecap="round" stroke-linejoin="round"/>
<path d="M18.6651 4.68945C22.5498 4.89992 24.4977 6.34018 24.4977 11.6652V18.6656C24.4977 23.3317 23.3312 25.6647 17.4986 25.6647H10.4981C4.66554 25.6647 3.49902 23.3317 3.49902 18.6656V11.6652C3.49902 6.34018 5.44689 4.89992 9.33161 4.68945" stroke="#1D75B1" stroke-width="2" stroke-linecap="round" stroke-linejoin="round"/>
</svg>
