<svg width="26" height="26" viewBox="0 0 26 26" fill="none" xmlns="http://www.w3.org/2000/svg">
<path d="M17.9538 23.234H7.39327C3.16877 23.234 2.1123 22.1776 2.1123 17.9531V15.8415C2.1123 11.617 3.16877 10.5605 7.39327 10.5605H17.9538C22.1783 10.5605 23.2348 11.617 23.2348 15.8415V17.9531C23.2348 22.1776 22.1783 23.234 17.9538 23.234Z" stroke="#1D75B1" stroke-width="2" stroke-linecap="round" stroke-linejoin="round"/>
<path d="M6.33691 10.5606V8.44763C6.33691 4.95221 7.39338 2.11157 12.673 2.11157C17.4257 2.11157 19.0104 4.22313 19.0104 7.39254" stroke="#1D75B1" stroke-width="2" stroke-linecap="round" stroke-linejoin="round"/>
<path opacity="0.4" d="M15.3147 16.898C15.3147 17.42 15.16 17.9303 14.87 18.3644C14.58 18.7985 14.1678 19.1369 13.6855 19.3367C13.2032 19.5365 12.6725 19.5889 12.1605 19.4871C11.6484 19.3854 11.1781 19.1341 10.8088 18.7651C10.4396 18.396 10.1881 17.9258 10.086 17.4138C9.98404 16.9018 10.0361 16.3711 10.2357 15.8887C10.4353 15.4063 10.7734 14.994 11.2074 14.7037C11.6413 14.4135 12.1515 14.2585 12.6736 14.2582C13.0204 14.258 13.3638 14.3261 13.6842 14.4587C14.0046 14.5913 14.2958 14.7857 14.5411 15.0309C14.7864 15.276 14.9809 15.5671 15.1137 15.8874C15.2464 16.2078 15.3147 16.5512 15.3147 16.898Z" stroke="#1D75B1" stroke-width="2" stroke-linecap="round" stroke-linejoin="round"/>
</svg>
