<svg width="29" height="29" viewBox="0 0 29 29" fill="none" xmlns="http://www.w3.org/2000/svg">
<path d="M24.7146 6.13417C22.8257 5.94743 20.9379 5.80552 19.0369 5.70001V5.68881L18.7792 4.16413C18.6 3.0848 18.3451 1.46582 15.6001 1.46582H12.5311C9.79826 1.46582 9.54336 3.01384 9.35663 4.15199L9.10174 5.65333C8.01121 5.72335 6.91975 5.79431 5.82923 5.89982L3.43623 6.13417C3.20446 6.15596 2.99083 6.26893 2.84235 6.44823C2.69386 6.62753 2.62269 6.85847 2.64448 7.09025C2.66627 7.32202 2.77924 7.53565 2.95854 7.68413C3.13784 7.83261 3.36878 7.90379 3.60056 7.882L5.99542 7.64765C12.1739 7.11437 18.39 7.19694 24.5521 7.89413H24.6455C24.8646 7.893 25.0755 7.81098 25.2379 7.66381C25.4002 7.51665 25.5024 7.31472 25.525 7.09678C25.5427 6.8622 25.4677 6.63004 25.3162 6.45008C25.1647 6.27012 24.9487 6.15671 24.7146 6.13417Z" fill="#E60B4D"/>
<path d="M22.5595 9.54857C22.4211 9.40398 22.2549 9.2889 22.0709 9.21028C21.8868 9.13165 21.6887 9.0911 21.4886 9.09107H6.66193C6.46225 9.09046 6.26455 9.13074 6.08101 9.20942C5.89748 9.2881 5.732 9.40352 5.59475 9.54857C5.45766 9.69629 5.35152 9.86995 5.28257 10.0593C5.21362 10.2487 5.18326 10.4499 5.19327 10.6512L5.9206 22.6862C6.04945 24.4695 6.21377 26.701 10.3088 26.701H17.8398C21.934 26.701 22.0983 24.4845 22.2281 22.6862L22.9554 10.6624C22.9671 10.4597 22.9381 10.2568 22.8701 10.0655C22.8021 9.87417 22.6965 9.69841 22.5595 9.54857ZM16.0238 20.8217H12.1164C11.883 20.8217 11.6592 20.729 11.4942 20.564C11.3292 20.3989 11.2364 20.1751 11.2364 19.9417C11.2364 19.7083 11.3292 19.4845 11.4942 19.3195C11.6592 19.1544 11.883 19.0617 12.1164 19.0617H16.0238C16.2572 19.0617 16.4811 19.1544 16.6461 19.3195C16.8111 19.4845 16.9038 19.7083 16.9038 19.9417C16.9038 20.1751 16.8111 20.3989 16.6461 20.564C16.4811 20.729 16.2572 20.8217 16.0238 20.8217ZM17.0089 16.13H11.1426C10.9092 16.13 10.6854 16.0373 10.5204 15.8723C10.3553 15.7072 10.2626 15.4834 10.2626 15.25C10.2626 15.0166 10.3553 14.7928 10.5204 14.6278C10.6854 14.4627 10.9092 14.37 11.1426 14.37H17.0079C17.2413 14.37 17.4651 14.4627 17.6302 14.6278C17.7952 14.7928 17.8879 15.0166 17.8879 15.25C17.8879 15.4834 17.7952 15.7072 17.6302 15.8723C17.4651 16.0373 17.2422 16.13 17.0089 16.13Z" fill="#E60B4D"/>
</svg>
