<svg width="107" height="104" viewBox="0 0 107 104" fill="none" xmlns="http://www.w3.org/2000/svg">
<path d="M6.82227 29.6584L50.0902 54.698L93.0641 29.8055" stroke="#1D75B1" stroke-width="5" stroke-linecap="round" stroke-linejoin="round"/>
<path d="M50.0859 99.0928V54.6489" stroke="#1D75B1" stroke-width="5" stroke-linecap="round" stroke-linejoin="round"/>
<path d="M97.18 38.1356V65.8702C97.188 66.1 97.1716 66.33 97.1309 66.5562C93.6056 63.4718 89.0749 61.7815 84.3907 61.8031C79.1923 61.8031 74.2069 63.8682 70.5311 67.544C66.8553 71.2197 64.7903 76.2052 64.7903 81.4035C64.7833 84.9667 65.7673 88.4616 67.6323 91.4977C68.0818 92.2822 68.607 93.0207 69.2004 93.7028L60.2332 98.6519C57.0762 100.201 53.6064 101.006 50.09 101.006C46.5735 101.006 43.1038 100.201 39.9468 98.6519L13.7802 84.1476C10.6548 82.1828 8.04527 79.4983 6.16979 76.3185C4.29431 73.1387 3.20742 69.5561 3 65.8702L3 38.1356C3.20742 34.4498 4.29431 30.8672 6.16979 27.6874C8.04527 24.5076 10.6548 21.8231 13.7802 19.8583L39.9468 5.35396C43.1038 3.80523 46.5735 3 50.09 3C53.6064 3 57.0762 3.80523 60.2332 5.35396L86.3997 19.8583C89.5251 21.8231 92.1347 24.5076 94.0102 27.6874C95.8856 30.8672 96.9725 34.4498 97.18 38.1356Z" stroke="#1D75B1" stroke-width="5" stroke-linecap="round" stroke-linejoin="round"/>
<path d="M103.988 81.4036C103.988 86.602 101.923 91.5874 98.2471 95.2632C94.5713 98.939 89.5859 101.004 84.3875 101.004C79.1892 101.004 74.2037 98.939 70.5279 95.2632C66.8521 91.5874 64.7871 86.602 64.7871 81.4036C64.7871 76.2053 66.8521 71.2198 70.5279 67.544C74.2037 63.8683 79.1892 61.8032 84.3875 61.8032C89.5859 61.8032 94.5713 63.8683 98.2471 67.544C101.923 71.2198 103.988 76.2053 103.988 81.4036Z" stroke="#1D75B1" stroke-width="5" stroke-linecap="round" stroke-linejoin="round"/>
<path d="M85.6134 75.2783V82.6285L79.4883 86.3035" stroke="#1D75B1" stroke-width="5" stroke-linecap="round" stroke-linejoin="round"/>
</svg>
