<svg width="28" height="28" viewBox="0 0 28 28" fill="none" xmlns="http://www.w3.org/2000/svg">
<path d="M3.69824 8.68005L13.9999 14.6417L24.2316 8.71505" stroke="#1D75B1" stroke-width="2" stroke-linecap="round" stroke-linejoin="round"/>
<path d="M14 25.2117V14.63" stroke="#1D75B1" stroke-width="2" stroke-linecap="round" stroke-linejoin="round"/>
<path d="M25.2114 10.6983V17.3017C25.2133 17.3564 25.2094 17.4111 25.1998 17.465C24.3604 16.7306 23.2817 16.3282 22.1664 16.3333C20.9287 16.3333 19.7418 16.825 18.8666 17.7002C17.9914 18.5753 17.4998 19.7623 17.4998 21C17.4981 21.8484 17.7324 22.6805 18.1764 23.4033C18.2834 23.5901 18.4085 23.7659 18.5498 23.9283L16.4148 25.1067C15.6631 25.4754 14.837 25.6671 13.9998 25.6671C13.1625 25.6671 12.3364 25.4754 11.5848 25.1067L5.35475 21.6533C4.61063 21.1855 3.98932 20.5464 3.54278 19.7893C3.09625 19.0322 2.83747 18.1792 2.78809 17.3017L2.78809 10.6983C2.83747 9.82078 3.09625 8.96779 3.54278 8.21071C3.98932 7.45363 4.61063 6.81447 5.35475 6.34668L11.5848 2.89334C12.3364 2.5246 13.1625 2.33289 13.9998 2.33289C14.837 2.33289 15.6631 2.5246 16.4148 2.89334L22.6448 6.34668C23.3889 6.81447 24.0102 7.45363 24.4567 8.21071C24.9033 8.96779 25.162 9.82078 25.2114 10.6983Z" stroke="#1D75B1" stroke-width="2" stroke-linecap="round" stroke-linejoin="round"/>
<path d="M26.8333 21C26.8333 22.2377 26.3417 23.4247 25.4665 24.2999C24.5913 25.175 23.4043 25.6667 22.1667 25.6667C20.929 25.6667 19.742 25.175 18.8668 24.2999C17.9917 23.4247 17.5 22.2377 17.5 21C17.5 19.7624 17.9917 18.5754 18.8668 17.7002C19.742 16.825 20.929 16.3334 22.1667 16.3334C23.4043 16.3334 24.5913 16.825 25.4665 17.7002C26.3417 18.5754 26.8333 19.7624 26.8333 21Z" stroke="#1D75B1" stroke-width="2" stroke-linecap="round" stroke-linejoin="round"/>
<path d="M22.4583 19.5417V21.2917L21 22.1667" stroke="#1D75B1" stroke-width="2" stroke-linecap="round" stroke-linejoin="round"/>
</svg>
