<svg width="18" height="18" viewBox="0 0 18 18" fill="none" xmlns="http://www.w3.org/2000/svg">
<path d="M13.5 15.5625C13.5 15.8221 13.423 16.0758 13.2788 16.2917C13.1346 16.5075 12.9296 16.6758 12.6898 16.7751C12.4499 16.8744 12.186 16.9004 11.9314 16.8498C11.6768 16.7991 11.443 16.6741 11.2594 16.4906C11.0759 16.307 10.9509 16.0732 10.9002 15.8186C10.8496 15.564 10.8756 15.3001 10.9749 15.0602C11.0742 14.8204 11.2425 14.6154 11.4583 14.4712C11.6742 14.327 11.9279 14.25 12.1875 14.25C12.5356 14.25 12.8694 14.3883 13.1156 14.6344C13.3617 14.8806 13.5 15.2144 13.5 15.5625Z" fill="#1D75B1"/>
<path d="M7.5 15.5625C7.5 15.8221 7.42302 16.0758 7.2788 16.2917C7.13459 16.5075 6.9296 16.6758 6.68977 16.7751C6.44994 16.8744 6.18604 16.9004 5.93144 16.8498C5.67684 16.7991 5.44298 16.6741 5.25942 16.4906C5.07587 16.307 4.95086 16.0732 4.90022 15.8186C4.84958 15.564 4.87557 15.3001 4.97491 15.0602C5.07425 14.8204 5.24248 14.6154 5.45831 14.4712C5.67415 14.327 5.92791 14.25 6.1875 14.25C6.5356 14.25 6.86944 14.3883 7.11558 14.6344C7.36172 14.8806 7.5 15.2144 7.5 15.5625Z" fill="#1D75B1"/>
<path d="M3.63 2.955L3.48 4.7925C3.47298 4.87517 3.48334 4.95839 3.51041 5.03681C3.53747 5.11524 3.58064 5.18714 3.63715 5.24788C3.69366 5.30863 3.76225 5.35688 3.83852 5.38954C3.91479 5.42219 3.99704 5.43853 4.08 5.4375H15.5625C15.7141 5.43793 15.8603 5.38093 15.9716 5.27796C16.0829 5.175 16.1511 5.03371 16.1625 4.8825C16.1891 4.57361 16.1506 4.26259 16.0495 3.9695C15.9484 3.67641 15.787 3.40777 15.5757 3.18092C15.3644 2.95406 15.1079 2.77403 14.8227 2.65244C14.5375 2.53085 14.23 2.4704 13.92 2.475H4.7025C4.62878 2.13883 4.47143 1.82669 4.245 1.5675C4.06017 1.37042 3.83722 1.21295 3.58968 1.10465C3.34215 0.996352 3.07518 0.939485 2.805 0.9375L1.5 0.9375C1.35112 0.938483 1.20862 0.998062 1.10334 1.10334C0.998062 1.20862 0.938483 1.35112 0.9375 1.5C0.938483 1.64888 0.998062 1.79138 1.10334 1.89666C1.20862 2.00194 1.35112 2.06152 1.5 2.0625H2.805C2.91926 2.06212 3.03236 2.08547 3.13712 2.13109C3.24188 2.1767 3.33603 2.24358 3.41359 2.32749C3.49115 2.4114 3.55043 2.5105 3.58769 2.61852C3.62494 2.72654 3.63935 2.84112 3.63 2.955Z" fill="#1D75B1"/>
<path d="M15.3824 6.56256H3.87742C3.72698 6.56198 3.58182 6.61794 3.47069 6.71934C3.35956 6.82075 3.29058 6.9602 3.27742 7.11006L3.00742 10.3726C2.98167 10.6748 3.01896 10.9792 3.11694 11.2663C3.21491 11.5534 3.37144 11.8171 3.5766 12.0406C3.78176 12.2641 4.03108 12.4425 4.30879 12.5646C4.5865 12.6868 4.88654 12.7499 5.18992 12.7501H13.5299C14.0841 12.7394 14.6148 12.5245 15.0203 12.1467C15.4258 11.7688 15.6776 11.2546 15.7274 10.7026L15.9749 7.20006C15.9821 7.11835 15.972 7.03606 15.9453 6.95849C15.9187 6.88092 15.8761 6.8098 15.8202 6.74972C15.7644 6.68965 15.6966 6.64195 15.6212 6.60971C15.5458 6.57747 15.4644 6.56141 15.3824 6.56256Z" fill="#1D75B1"/>
</svg>
