<svg width="25" height="22" viewBox="0 0 25 22" fill="none" xmlns="http://www.w3.org/2000/svg">
<path d="M13.213 20.8988C12.7476 21.0337 12.2522 21.0337 11.7868 20.8988C8.45166 19.7864 1.00003 15.1464 1.00003 7.28162C0.997654 6.45908 1.16116 5.64414 1.48122 4.88334C1.80127 4.12255 2.2716 3.4308 2.86534 2.84762C3.45907 2.26444 4.16459 1.80124 4.94158 1.48448C5.71858 1.16773 6.55184 1.00362 7.39376 1.00153C8.38708 1.0011 9.36662 1.22862 10.2535 1.66576C11.1403 2.1029 11.9096 2.73744 12.4995 3.51826C13.3015 2.4623 14.4248 1.68125 15.7087 1.28688C16.9926 0.89251 18.3713 0.90503 19.6475 1.32265C20.9237 1.74027 22.032 2.54159 22.8137 3.61193C23.5955 4.68226 24.0106 5.96677 23.9998 7.28162C23.9998 15.1464 16.5473 19.7864 13.213 20.8988Z" stroke="#292D32" stroke-width="1.5" stroke-linecap="round" stroke-linejoin="round"/>
</svg>
