<svg width="24" height="24" viewBox="0 0 24 24" fill="none" xmlns="http://www.w3.org/2000/svg">
<path d="M16.764 6.90301C16.764 7.87826 16.4748 8.83161 15.933 9.64249C15.3912 10.4534 14.621 11.0854 13.72 11.4586C12.819 11.8317 11.8275 11.9294 10.871 11.7391C9.91451 11.5488 9.03592 11.0791 8.34635 10.3894C7.65679 9.69979 7.18721 8.82114 6.99702 7.86462C6.80683 6.90809 6.90456 5.91665 7.27785 5.01566C7.65114 4.11468 8.28322 3.34463 9.09417 2.80289C9.90512 2.26115 10.8585 1.97206 11.8338 1.97217C13.1414 1.97232 14.3954 2.49188 15.32 3.41658C16.2446 4.34127 16.764 5.59536 16.764 6.90301Z" stroke="#1D75B1" stroke-width="1.5" stroke-linecap="round" stroke-linejoin="round"/>
<path d="M20.3041 21.6949C20.3041 17.8785 16.5076 14.792 11.8329 14.792C7.15827 14.792 3.3623 17.8785 3.3623 21.6949" stroke="#1D75B1" stroke-width="1.5" stroke-linecap="round" stroke-linejoin="round"/>
</svg>
